<?xml version="1.0" encoding="UTF-8"?>
<svg width="96px" height="42px" viewBox="0 0 96 42" version="1.1" xmlns="http://www.w3.org/2000/svg" xmlns:xlink="http://www.w3.org/1999/xlink">
    <!-- Generator: Sketch 63.1 (92452) - https://sketch.com -->
    <title>Logo</title>
    <desc>Created with Sketch.</desc>
    <defs>
        <linearGradient x1="29.3367347%" y1="100%" x2="70.6632653%" y2="0%" id="linearGradient-1">
            <stop stop-color="#009245" offset="0%"></stop>
            <stop stop-color="#8CC631" offset="100%"></stop>
        </linearGradient>
        <linearGradient x1="44.4474017%" y1="13.9385491%" x2="81.8653344%" y2="-5.81600448%" id="linearGradient-2">
            <stop stop-color="#009245" offset="0%"></stop>
            <stop stop-color="#8CC631" offset="100%"></stop>
        </linearGradient>
        <linearGradient x1="0%" y1="55.9848162%" x2="100%" y2="44.0151838%" id="linearGradient-3">
            <stop stop-color="#009245" offset="0%"></stop>
            <stop stop-color="#8CC631" offset="100%"></stop>
        </linearGradient>
    </defs>
    <g id="Symbols" stroke="none" stroke-width="1" fill="none" fill-rule="evenodd">
        <g id="Logo-/-Dark-Logo">
            <g id="Logo">
                <g id="Group-2">
                    <g id="Big-Shape-Copy">
                        <path d="M26.0960187,15.9825821 C23.6539943,25.5617193 13.3227167,36.75 13.3227167,36.75 C13.3227167,36.75 2.77847196,25.5001932 0.383773634,15.921056 C-1.73170097,7.44938828 5.22049633,0 13.332182,0 C21.4438676,0 28.2540867,7.52037991 26.0960187,15.9825821 Z" id="Shape" fill="url(#linearGradient-2)"></path>
                        <path d="M19.8354808,33.2871793 C23.0115493,34.0045968 25.1116436,35.1585154 25.1116436,36.2216764 C25.1116436,38.0152203 19.7404148,39.856304 13.1765399,39.856304 C6.61266499,39.856304 1.37539283,37.9331063 1.37539283,36.2216764 C1.37539283,35.1196193 3.45388121,33.9613789 6.6342709,33.2569267 L6.25,32.125 C2.19673162,33.0714726 0,34.0558566 0,36.1951439 C0,39.3759832 5.62311439,41.25 13.25,41.25 C20.8768856,41.25 26.375,39.4969934 26.375,36.1951439 C26.375,34.0904309 24.2278048,33.0714726 20.1875,32.125 L19.8354808,33.2871793 Z" id="Path" fill="url(#linearGradient-3)"></path>
                    </g>
                    <g id="Group-Copy" transform="translate(5.500000, 8.000000)" stroke="#D9EBC0" stroke-width="0.5">
                        <ellipse id="Oval" cx="8.11868687" cy="6.25" rx="5.36868687" ry="6"></ellipse>
                        <ellipse id="Oval" cx="8.13157895" cy="6.25" rx="3.00657895" ry="3.5"></ellipse>
                        <path d="M15.5,0.00905811995 C15.5,0.00905811995 15.5,3.69693429 15.5,11.0726866 L15.5,12.375 C15.3957337,12.375 15.2915398,12.375 15.1874185,12.375 C15.0832971,12.375 14.9791757,12.375 14.8750544,12.375 L14.8750544,6.42857143 L14.2501087,6.42857143 C14.2472877,4.3063534 14.2993665,2.93977999 14.4063451,2.3288512 C14.8621806,-0.274314113 15.5,0.00905811995 15.5,0.00905811995 Z" id="Path"></path>
                        <path d="M1.99102647,0 C2.00299118,1.51126703 2.00299118,2.51305274 1.99102647,3.00535714 C1.94857852,4.75193782 1.98144144,5.30357143 1.83859654,5.30357143 C1.63535663,5.30357143 1.43211673,5.30357143 1.22887682,5.30357143 C1.22887682,7.26785714 1.22887682,8.74107143 1.22887682,9.72321429 C1.22887682,10.7053571 1.22887682,11.5892857 1.22887682,12.375 L0.619157095,12.375 L0.619157095,5.30357143 C0.619157095,5.30357143 0.466727164,5.30357143 0.161867302,5.30357143 C-0.0289390846,5.30357143 0.041013975,4.56718338 0.0094373712,3.18214286 C-0.0031457904,2.63020925 -0.0031457904,1.56949497 0.0094373712,0" id="Path-2"></path>
                        <line x1="0.875" y1="-2.20483354e-15" x2="0.875" y2="3.875" id="Path-3"></line>
                        <line x1="-8.8817842e-16" y1="0.1875" x2="2" y2="0.1875" id="Path-4"></line>
                    </g>
                </g>
                <path d="M40.2527785,14.1775449 C41.1623461,14.1775449 41.9892571,14.5479766 42.5881819,15.1476525 C43.1850985,15.7453177 43.555557,16.5708589 43.555557,17.4850299 L43.555557,17.4850299 L43.555557,21.242515 C43.555557,22.1518079 43.1832573,22.9784519 42.5845006,23.5779595 C41.9859485,24.1772622 41.1606498,24.55 40.2527785,24.55 C39.615553,24.55 39.0141834,24.3732239 38.5014291,24.0529184 C37.9863256,23.7311455 37.561054,23.2648656 37.2795632,22.6946909 C38.0331735,22.9037355 38.3833719,23.2883235 38.8066988,23.5543948 C39.2293548,23.8200445 39.7253428,23.9679641 40.2527785,23.9679641 C40.9934698,23.9679641 41.663262,23.670205 42.1533989,23.1891394 C42.6477854,22.7039027 42.9588928,22.0320984 42.9753774,21.2926626 L42.9753774,21.2926626 L42.9753774,19.4124774 C42.3215739,20.2139112 41.3600344,20.792515 40.2527785,20.792515 C39.3400374,20.792515 38.5158387,20.4216215 37.9191259,19.8241604 C37.3199967,19.2242798 36.95,18.3960222 36.95,17.4850299 C36.95,16.5691474 37.3181663,15.7420041 37.9154497,15.1439716 C38.5125295,14.546143 39.3383289,14.1775449 40.2527785,14.1775449 Z M40.2527785,14.7595808 C39.5004169,14.7595808 38.8197269,15.0645206 38.3271154,15.5577499 C37.8347078,16.050775 37.5301796,16.73201 37.5301796,17.4850299 C37.5301796,18.2312162 37.835706,18.9146788 38.3308126,19.4104064 C38.8232587,19.9034701 39.5025716,20.210479 40.2527785,20.210479 C40.9961827,20.210479 41.6776978,19.9024542 42.1728348,19.4066962 C42.6677663,18.911144 42.9753774,18.2290861 42.9753774,17.4850299 C42.9753774,16.7341661 42.6687823,16.054311 42.1765404,15.5614517 C41.6812286,15.0655187 40.9983113,14.7595808 40.2527785,14.7595808 Z M50.0138472,14.1775449 C50.9282967,14.1775449 51.7540962,14.546143 52.351176,15.1439716 C52.9484594,15.7420041 53.3166257,16.5691474 53.3166257,17.4850299 C53.3166257,18.3960222 52.9466289,19.2242798 52.3474998,19.8241604 C51.750787,20.4216215 50.9265882,20.792515 50.0138472,20.792515 C49.1059759,20.792515 48.2806772,20.4197772 47.6821251,19.8204745 C47.0833684,19.2209668 46.7110687,18.3943229 46.7110687,17.4850299 C46.7110687,16.5708589 47.0815272,15.7453177 47.6784438,15.1476525 C48.2773685,14.5479766 49.1042796,14.1775449 50.0138472,14.1775449 Z M50.0138472,14.7595808 C49.2614856,14.7595808 48.5807956,15.0645206 48.0881841,15.5577499 C47.5957765,16.050775 47.2912482,16.73201 47.2912482,17.4850299 C47.2912482,18.2312162 47.5967746,18.9146788 48.0918813,19.4104064 C48.5843274,19.9034701 49.2636403,20.210479 50.0138472,20.210479 C50.764054,20.210479 51.4433669,19.9034701 51.9358131,19.4104064 C52.4309197,18.9146788 52.7364461,18.2312162 52.7364461,17.4850299 C52.7364461,16.73201 52.4319178,16.050775 51.9395103,15.5577499 C51.4468988,15.0645206 50.7662088,14.7595808 50.0138472,14.7595808 Z M66.2246953,10.5166743 C65.7534248,10.6739615 65.3484931,10.9373229 64.9952066,11.2910525 C64.2604459,12.0267346 63.9206227,13.0658717 64.0691758,14.1775449 L62.7630417,14.7595808 L64.0353636,14.7595808 L64.6155432,20.494012 L64.6155432,14.7595808 L66.3812584,14.1775449 L64.6411684,14.1775449 C64.5307387,13.1829982 64.7757396,12.3330125 65.4050034,11.7029595 C65.71145,11.3961286 66.0549091,11.1814245 66.2246953,10.5166743 Z M72.2101328,14.1775449 C73.1245824,14.1775449 73.9503819,14.546143 74.5474617,15.1439716 C75.1447451,15.7420041 75.5129113,16.5691474 75.5129113,17.4850299 C75.5129113,18.3960222 75.1429146,19.2242798 74.5437854,19.8241604 C73.9470727,20.4216215 73.1228739,20.792515 72.2101328,20.792515 C71.3022616,20.792515 70.4769628,20.4197772 69.8784108,19.8204745 C69.2796541,19.2209668 68.9073543,18.3943229 68.9073543,17.4850299 C68.9073543,16.5708589 69.2778129,15.7453177 69.8747295,15.1476525 C70.4736542,14.5479766 71.3005652,14.1775449 72.2101328,14.1775449 Z M72.2101328,14.7595808 C71.4577712,14.7595808 70.7770812,15.0645206 70.2844698,15.5577499 C69.7920622,16.050775 69.4875339,16.73201 69.4875339,17.4850299 C69.4875339,18.2312162 69.7930603,18.9146788 70.2881669,19.4104064 C70.7806131,19.9034701 71.459926,20.210479 72.2101328,20.210479 C72.9603397,20.210479 73.6396526,19.9034701 74.1320988,19.4104064 C74.6272054,18.9146788 74.9327318,18.2312162 74.9327318,17.4850299 C74.9327318,16.73201 74.6282035,16.050775 74.1357959,15.5577499 C73.6431844,15.0645206 72.9624944,14.7595808 72.2101328,14.7595808 Z M81.9712015,14.1775449 C82.8856511,14.1775449 83.7114506,14.546143 84.3085303,15.1439716 C84.9058137,15.7420041 85.27398,16.5691474 85.27398,17.4850299 C85.27398,18.3960222 84.9039833,19.2242798 84.3048541,19.8241604 C83.7081413,20.4216215 82.8839426,20.792515 81.9712015,20.792515 C81.0633303,20.792515 80.2380315,20.4197772 79.6394794,19.8204745 C79.0407227,19.2209668 78.668423,18.3943229 78.668423,17.4850299 C78.668423,16.5708589 79.0388816,15.7453177 79.6357981,15.1476525 C80.2347229,14.5479766 81.0616339,14.1775449 81.9712015,14.1775449 Z M81.9712015,14.7595808 C81.2188399,14.7595808 80.5381499,15.0645206 80.0455384,15.5577499 C79.5531309,16.050775 79.2486026,16.73201 79.2486026,17.4850299 C79.2486026,18.2312162 79.554129,18.9146788 80.0492356,19.4104064 C80.5416817,19.9034701 81.2209947,20.210479 81.9712015,20.210479 C82.7214084,20.210479 83.4007213,19.9034701 83.8931674,19.4104064 C84.3882741,18.9146788 84.6938004,18.2312162 84.6938004,17.4850299 C84.6938004,16.73201 84.3892722,16.050775 83.8968646,15.5577499 C83.4042531,15.0645206 82.7235631,14.7595808 81.9712015,14.7595808 Z M94.5531429,10.5331932 C94.8362965,10.45 94.9120397,10.481442 94.966403,10.5347848 C95.0182089,10.5856182 95.05,10.6559414 95.05,10.7335329 L95.05,10.7335329 L95.05,17.4550898 C95.05,18.3643828 94.6777003,19.1910267 94.0789436,19.7905344 C93.4803915,20.3898371 92.6550928,20.7625749 91.7472215,20.7625749 C90.8344804,20.7625749 90.0102817,20.3916814 89.4135689,19.7942203 C88.8144397,19.1943397 88.444443,18.366082 88.444443,17.4550898 C88.444443,16.5392073 88.8126093,15.712064 89.4098927,15.1140315 C90.0069725,14.5162029 90.8327719,14.1476048 91.7472215,14.1476048 C92.8812079,14.1476048 93.8953657,14.7189147 94.4698204,15.5917432 L94.4698204,15.5917432 L94.4698204,10.7335329 C94.4698204,10.6553524 94.5018566,10.5845438 94.5531429,10.5331932 Z M91.7472215,14.7296407 C90.9948599,14.7296407 90.3141699,15.0345805 89.8215584,15.5278098 C89.3291508,16.0208349 89.0246226,16.7020699 89.0246226,17.4550898 C89.0246226,18.2012761 89.330149,18.8847387 89.8252556,19.3804663 C90.3177017,19.87353 90.9970147,20.1805389 91.7472215,20.1805389 C92.5008708,20.1805389 93.182604,19.8746287 93.6755519,19.3778154 C94.1659764,18.8835453 94.4698204,18.1999768 94.4698204,17.4401198 C94.4698204,16.6939566 94.164604,16.0150305 93.6701749,15.5232381 C93.1779058,15.0335943 92.4982751,14.7296407 91.7472215,14.7296407 Z" id="gofood" stroke="#282A2C" stroke-width="0.9" fill="#FFFFFF" fill-rule="nonzero"></path>
            </g>
        </g>
    </g>
</svg>